<svg width="41" height="40" viewBox="0 0 41 40" fill="none" xmlns="http://www.w3.org/2000/svg">
<g clip-path="url(#clip0_57_7480)">
<path d="M20.5 40C31.5457 40 40.5 31.0457 40.5 20C40.5 8.9543 31.5457 0 20.5 0C9.4543 0 0.5 8.9543 0.5 20C0.5 31.0457 9.4543 40 20.5 40Z" fill="#DD9C4F"/>
<path d="M29.4862 17.525C29.8787 14.905 27.8825 13.4963 25.155 12.5563L26.04 9.00625L23.88 8.46875L23.0175 11.925C22.45 11.7825 21.8675 11.65 21.2862 11.5175L22.155 8.03875L19.995 7.5L19.11 11.0487C18.64 10.9412 18.1775 10.8363 17.73 10.7238L17.7325 10.7125L14.7525 9.96875L14.1775 12.2762C14.1775 12.2762 15.7812 12.6438 15.7475 12.6663C16.6225 12.885 16.78 13.4637 16.7537 13.9237L15.7462 17.9675C15.8062 17.9825 15.8837 18.005 15.9712 18.0387L15.7425 17.9825L14.33 23.6475C14.2225 23.9125 13.9512 24.3112 13.3387 24.16C13.3612 24.1912 11.7687 23.7687 11.7687 23.7687L10.6962 26.2412L13.5087 26.9425C14.0312 27.0738 14.5437 27.2113 15.0475 27.34L14.1537 30.93L16.3125 31.4675L17.1975 27.9175C17.7875 28.0763 18.36 28.2237 18.92 28.3638L18.0375 31.8987L20.1975 32.4362L21.0912 28.8538C24.7762 29.5513 27.5462 29.27 28.7125 25.9375C29.6525 23.255 28.6662 21.7063 26.7275 20.6975C28.14 20.3725 29.2025 19.4438 29.4862 17.525ZM24.5487 24.4475C23.8825 27.1313 19.3637 25.68 17.8987 25.3162L19.0862 20.56C20.5512 20.9262 25.2475 21.65 24.5487 24.4475ZM25.2175 17.4862C24.6087 19.9275 20.8487 18.6863 19.63 18.3825L20.705 14.07C21.9237 14.3737 25.8525 14.94 25.2175 17.4862Z" fill="white"/>
</g>
<defs>
<clipPath id="clip0_57_7480">
<rect width="40" height="40" fill="white" transform="translate(0.5)"/>
</clipPath>
</defs>
</svg>
