<svg width="41" height="40" viewBox="0 0 41 40" fill="none" xmlns="http://www.w3.org/2000/svg">
<g clip-path="url(#clip0_57_7470)">
<path d="M20.5 40C31.5457 40 40.5 31.0457 40.5 20C40.5 8.9543 31.5457 0 20.5 0C9.4543 0 0.5 8.9543 0.5 20C0.5 31.0457 9.4543 40 20.5 40Z" fill="#6C7CDC"/>
<path d="M21.1225 5V16.0875L30.4937 20.275L21.1225 5Z" fill="white"/>
<path d="M21.1225 5L11.75 20.275L21.1225 16.0875V5Z" fill="white"/>
<path d="M21.1225 27.46V34.9938L30.5 22.02L21.1225 27.46Z" fill="white"/>
<path d="M21.1225 34.9938V27.4588L11.75 22.02L21.1225 34.9938Z" fill="white"/>
<path d="M21.1225 25.7163L30.4937 20.2751L21.1225 16.0901V25.7163Z" fill="white"/>
<path d="M11.75 20.2751L21.1225 25.7163V16.0901L11.75 20.2751Z" fill="white"/>
</g>
<defs>
<clipPath id="clip0_57_7470">
<rect width="40" height="40" fill="white" transform="translate(0.5)"/>
</clipPath>
</defs>
</svg>
