<svg width="41" height="40" viewBox="0 0 41 40" fill="none" xmlns="http://www.w3.org/2000/svg">
<g clip-path="url(#clip0_123_2933)">
<path d="M20.5 40C31.5457 40 40.5 31.0457 40.5 20C40.5 8.9543 31.5457 0 20.5 0C9.4543 0 0.5 8.9543 0.5 20C0.5 31.0457 9.4543 40 20.5 40Z" fill="#6445C8"/>
<path d="M26.865 15.8662C26.4037 15.5975 25.805 15.5975 25.2975 15.8662L21.6987 17.9338L19.255 19.2813L15.6562 21.3475C15.195 21.6175 14.5962 21.6175 14.0887 21.3475L11.2287 19.73C10.7675 19.4613 10.445 18.9675 10.445 18.4275V15.2375C10.445 14.6987 10.7212 14.205 11.2287 13.935L14.0412 12.3625C14.5037 12.0925 15.1037 12.0925 15.6112 12.3625L18.4237 13.935C18.8862 14.205 19.2087 14.6987 19.2087 15.2375V17.305L21.6525 15.9113V13.845C21.6552 13.5766 21.5834 13.3128 21.445 13.0828C21.3066 12.8528 21.1071 12.6658 20.8687 12.5425L15.6562 9.5775C15.195 9.3075 14.5962 9.3075 14.0887 9.5775L8.78375 12.5425C8.54536 12.6658 8.34588 12.8528 8.20751 13.0828C8.06913 13.3128 7.9973 13.5766 8 13.845V19.82C8 20.36 8.27625 20.8538 8.78375 21.1238L14.0887 24.0887C14.55 24.3575 15.15 24.3575 15.6562 24.0887L19.255 22.0662L21.6987 20.6737L25.2975 18.6525C25.7587 18.3825 26.3575 18.3825 26.865 18.6525L29.6787 20.225C30.1412 20.4938 30.4625 20.9875 30.4625 21.5275V24.7175C30.4625 25.2563 30.1875 25.75 29.6787 26.02L26.8662 27.6375C26.4037 27.9075 25.8037 27.9075 25.2975 27.6375L22.4837 26.065C22.0212 25.795 21.6987 25.3012 21.6987 24.7625V22.695L19.255 24.0887V26.155C19.255 26.6937 19.5312 27.1887 20.0387 27.4575L25.3437 30.4225C25.805 30.6925 26.4037 30.6925 26.9112 30.4225L32.2162 27.4575C32.6775 27.1887 33 26.695 33 26.155V20.18C33.0027 19.9116 32.9309 19.6478 32.7925 19.4178C32.6541 19.1879 32.4546 19.0008 32.2162 18.8775L26.8662 15.8662H26.865Z" fill="white"/>
</g>
<defs>
<clipPath id="clip0_123_2933">
<rect width="40" height="40" fill="white" transform="translate(0.5)"/>
</clipPath>
</defs>
</svg>
