<svg width="13" height="12" viewBox="0 0 13 12" fill="none" xmlns="http://www.w3.org/2000/svg">
<path d="M6.24536 12C9.55907 12 12.2454 9.31371 12.2454 6C12.2454 2.68629 9.55907 0 6.24536 0C2.93165 0 0.245361 2.68629 0.245361 6C0.245361 9.31371 2.93165 12 6.24536 12Z" fill="#5471B8"/>
<path d="M7.75369 6.79647C7.75369 5.99997 7.27369 5.72697 6.31369 5.61297C5.62819 5.52185 5.49132 5.33997 5.49132 5.02122C5.49132 4.70247 5.72007 4.49772 6.17682 4.49772C6.58819 4.49772 6.81694 4.63422 6.93094 4.97585C6.94282 5.00888 6.96454 5.03748 6.99317 5.0578C7.0218 5.07811 7.05596 5.08917 7.09107 5.08947H7.45669C7.47781 5.09004 7.49882 5.0863 7.51846 5.0785C7.53809 5.0707 7.55593 5.059 7.57091 5.04409C7.58588 5.02919 7.59767 5.0114 7.60556 4.99181C7.61345 4.97221 7.61728 4.95122 7.61682 4.9301V4.9076C7.57213 4.66043 7.44708 4.43495 7.26107 4.26616C7.07506 4.09738 6.83852 3.99475 6.58819 3.97422V3.42822C6.58819 3.3371 6.51957 3.26885 6.40557 3.24597H6.06244C5.97132 3.24597 5.90269 3.31422 5.87982 3.42822V3.95172C5.19394 4.04247 4.76007 4.49772 4.76007 5.06697C4.76007 5.81772 5.21682 6.1136 6.17682 6.2276C6.81694 6.34122 7.02244 6.4781 7.02244 6.84222C7.02244 7.20597 6.70257 7.45647 6.26832 7.45647C5.67394 7.45647 5.46844 7.20635 5.39982 6.86472C5.37732 6.77397 5.30832 6.72822 5.23969 6.72822H4.85119C4.83011 6.72771 4.80914 6.73148 4.78955 6.7393C4.76996 6.74713 4.75216 6.75884 4.73723 6.77374C4.72229 6.78864 4.71054 6.80641 4.70267 6.82598C4.6948 6.84555 4.69098 6.86651 4.69144 6.8876V6.9101C4.78257 7.47935 5.14857 7.88885 5.90269 8.00285V8.54922C5.90269 8.63997 5.97132 8.7086 6.08532 8.7311H6.42844C6.51957 8.7311 6.58819 8.66285 6.61107 8.54922V8.00247C7.29694 7.88885 7.75369 7.41072 7.75369 6.7961V6.79647Z" fill="white"/>
<path d="M5.07985 9.18637C3.2971 8.54887 2.38285 6.56887 3.04585 4.8165C3.3886 3.86025 4.14272 3.13237 5.07985 2.79075C5.17135 2.74537 5.21672 2.67713 5.21672 2.56313V2.24438C5.21672 2.15363 5.17135 2.08538 5.07985 2.0625C5.05697 2.0625 5.01122 2.0625 4.98835 2.085C4.47401 2.24562 3.99652 2.5064 3.58338 2.85231C3.17024 3.19823 2.8296 3.62246 2.58109 4.10056C2.33257 4.57866 2.18109 5.10121 2.13535 5.6381C2.08961 6.17499 2.15053 6.71562 2.3146 7.22888C2.7256 8.50388 3.70847 9.48262 4.98835 9.89212C5.07985 9.9375 5.17135 9.89212 5.19385 9.801C5.21672 9.7785 5.21672 9.75525 5.21672 9.70987V9.39112C5.21672 9.32287 5.14847 9.23212 5.07985 9.18637ZM7.50235 2.08537C7.41085 2.03962 7.31935 2.08537 7.29685 2.17612C7.27397 2.199 7.27397 2.22188 7.27397 2.26725V2.586C7.27397 2.67712 7.34222 2.76787 7.41085 2.81362C9.1936 3.45112 10.1078 5.43113 9.44485 7.1835C9.1021 8.13975 8.34797 8.86763 7.41085 9.20925C7.31935 9.25463 7.27397 9.32288 7.27397 9.43688V9.75562C7.27397 9.84637 7.31935 9.91462 7.41085 9.9375C7.43372 9.9375 7.47947 9.9375 7.50235 9.915C8.01669 9.75438 8.49417 9.4936 8.90731 9.14769C9.32045 8.80177 9.66109 8.37754 9.9096 7.89944C10.1581 7.42134 10.3096 6.89879 10.3553 6.3619C10.4011 5.82501 10.3402 5.28438 10.1761 4.77112C9.7651 3.47362 8.75935 2.49487 7.50235 2.08537Z" fill="white"/>
</svg>
