<svg width="114" height="114" viewBox="0 0 114 114" fill="white" xmlns="http://www.w3.org/2000/svg">
<path fill-rule="evenodd" clip-rule="evenodd" d="M56.6875 113.125C25.5179 113.125 0.25 87.8573 0.25 56.6875C0.25 25.5179 25.5179 0.25 56.6875 0.25C87.8573 0.25 113.125 25.5179 113.125 56.6875C113.125 87.8573 87.8573 113.125 56.6875 113.125ZM79.998 45.6535C82.602 44.3781 83.6788 41.2333 82.4036 38.6294C81.1278 36.0254 77.9831 34.9485 75.3791 36.2238C65.1111 41.2531 57.1611 49.883 51.8953 56.9175C50.0704 59.355 48.5301 61.6524 47.2914 63.6228C45.8259 62.3533 44.3806 61.3017 43.1066 60.4617C41.6495 59.501 40.3566 58.7775 39.4131 58.2877C38.9399 58.042 38.5508 57.8525 38.268 57.7197C38.1265 57.6535 38.0114 57.601 37.9253 57.5622L37.8183 57.5149L37.7816 57.4992L37.7677 57.4929L37.7566 57.4881C37.7554 57.4876 37.7566 57.4881 35.6886 62.3139L37.7566 57.4881C35.0916 56.3463 32.0052 57.5805 30.8631 60.2454C29.7231 62.9056 30.9525 65.9858 33.6069 67.1334L33.6123 67.1355L33.631 67.1439C33.6626 67.1581 33.7212 67.1849 33.8043 67.2237C33.9708 67.302 34.2337 67.4295 34.5727 67.6054C35.2534 67.9593 36.2245 68.5011 37.3268 69.2282C39.578 70.7124 42.1427 72.8139 43.9876 75.4494C45.0529 76.9714 46.8432 77.8167 48.6954 77.6728C50.5466 77.529 52.1851 76.416 53.0031 74.7486L53.0167 74.7218L53.0928 74.5706C53.1648 74.4299 53.2776 74.2115 53.4309 73.9243C53.7381 73.3484 54.2053 72.4974 54.8259 71.44C56.0696 69.3211 57.915 66.3969 60.3006 63.2101C65.1411 56.7447 71.891 49.6242 79.998 45.6535Z" fill="#1E52FF"/>
</svg>
